<?xml version="1.0" encoding="UTF-8" standalone="no"?>
<svg width="135px" height="140px" viewBox="0 0 135 140" version="1.1" xmlns="http://www.w3.org/2000/svg" xmlns:xlink="http://www.w3.org/1999/xlink" xmlns:sketch="http://www.bohemiancoding.com/sketch/ns">
    <title>svg-workshop</title>
    <description>Created with Sketch (http://www.bohemiancoding.com/sketch)</description>
    <defs></defs>
    <g id="Page-1" stroke="none" stroke-width="1" fill="none" fill-rule="evenodd" sketch:type="MSPage">
        <g id="data" sketch:type="MSLayerGroup" transform="translate(35.000000, 26.000000)">
            <g id="Group" sketch:type="MSShapeGroup">
                <path d="M64.7037854,54.7455286 C61.1267495,60.3602412 50.4832239,64.6148682 37.4215114,65.4080279 C36.7494343,65.4500556 36.0699818,65.4795643 35.3859198,65.5010253 C35.2642268,65.5054963 35.141612,65.5090731 35.019919,65.5126499 C34.3524515,65.5314282 33.6803744,65.5430529 33.0018438,65.5430529 L32.9981562,65.5430529 L32.9944685,65.5430529 C32.3168599,65.5430529 31.6447828,65.5287456 30.9754714,65.5126499 C30.8528565,65.5090731 30.7320855,65.5054963 30.6103925,65.5010253 C29.9263305,65.4795643 29.2478,65.4491614 28.5757229,65.4080279 C15.5130884,64.6148682 4.86864087,60.3611354 1.29252689,54.7455286 C0.44897332,53.4238938 0,54.1321041 0,54.7875563 L0,63.9424261 C0,69.5124285 5.83573125,75.2103021 14.6925828,78.6762404 L14.6916608,78.6780288 C14.7239279,78.6905476 14.7580388,78.7012781 14.7903059,78.713797 C15.3471435,78.9293003 15.9178097,79.1358617 16.4976952,79.333481 C16.6221539,79.3764028 16.7447688,79.4193246 16.8692275,79.4595639 C17.4979746,79.6688078 18.1368627,79.8691097 18.7895796,80.0568927 C18.8200028,80.0649406 18.8522699,80.0729884 18.883615,80.0819305 C19.4994552,80.254512 20.1300461,80.4172573 20.7661685,80.5692721 C20.9109093,80.6041461 21.0556502,80.6390201 21.201313,80.6721057 C21.875234,80.8285916 22.5565302,80.974347 23.2525772,81.1022183 C23.2839223,81.1093719 23.3152675,81.1147371 23.3456907,81.1201024 C24.0020953,81.2426084 24.6704847,81.3481246 25.3434837,81.445593 C25.5140383,81.4697365 25.6845928,81.4947742 25.8560693,81.5180236 C26.565023,81.6128093 27.2776645,81.6986529 28.0032127,81.7666125 C28.0317921,81.7692951 28.0603716,81.7710835 28.0898729,81.7737662 C28.784076,81.8363605 29.4874983,81.8837534 30.1955301,81.9204158 C30.384523,81.9320404 30.5725939,81.9382999 30.7625087,81.9472419 C31.4981981,81.9785391 32.2421847,82 32.9935466,82 L32.9972343,82 L32.9981562,82 L32.9990781,82 L33.0027657,82 C33.7541277,82 34.4981143,81.9803275 35.2384132,81.9481361 C35.428328,81.9382999 35.6163989,81.930252 35.8053918,81.92131 C36.5134237,81.8846476 37.215924,81.8372547 37.9101271,81.7746604 C37.9396284,81.7719777 37.9672859,81.7701893 37.9967873,81.7675067 C38.7223355,81.6995472 39.4358989,81.6137035 40.1448526,81.5189178 C40.317251,81.4956684 40.4868836,81.4706307 40.6574382,81.4464872 C41.3304372,81.3490188 41.9979047,81.2426084 42.6552312,81.1209966 C42.6856544,81.1156313 42.7169996,81.1102661 42.7492667,81.1031125 C43.4434698,80.974347 44.124766,80.8285916 44.7996089,80.6729999 C44.9443498,80.6399143 45.0881687,80.6050403 45.2329096,80.5701664 C45.8717977,80.4181515 46.5014667,80.2563004 47.1191507,80.0810363 C47.149574,80.0720942 47.1799972,80.0640464 47.2113424,80.0577869 C47.8649811,79.8700039 48.5029473,79.6705962 49.1335382,79.4604581 C49.257075,79.4202188 49.378768,79.377297 49.500461,79.3352694 C50.0812683,79.1358617 50.6556223,78.9301946 51.2133818,78.7129028 C51.2447269,78.7003839 51.2779159,78.6914418 51.3083392,78.678923 L51.3074172,78.6771346 C60.1642688,75.2103021 66,69.5124285 66,63.9433203 L66,54.7884505 C65.9963123,54.1329983 65.547339,53.4256822 64.7037854,54.7455286 L64.7037854,54.7455286 Z" id="Shape" fill="#FFFFFF"></path>
                <path d="M65.9557486,11.5813511 C65.0716431,5.12993358 50.6576804,0 33.000461,0 C33.000461,0 33.000461,0 32.999539,0 C32.9986171,0 32.999539,0 32.9986171,0 C14.7716612,0 0,5.46642675 0,12.208988 L0,18.0500015 C0,25.202522 14.7707393,31 32.9986171,31 L32.999539,31 L33.000461,31 C50.6576804,31 65.0716431,25.558969 65.9557486,18.7166389 C65.9843276,18.4953334 66,18.2740279 66,18.0500015 L66,12.208988 C65.9981562,11.9985664 65.9843276,11.7899587 65.9557486,11.5813511 L65.9557486,11.5813511 Z" id="Shape" fill="#FFFFFF"></path>
                <path d="M64.76371,29.6663311 C61.673446,34.1890059 53.0784188,37.7551397 42.1638497,39.05715 C40.7468641,39.2261699 39.291158,39.3543278 37.8031848,39.4453385 C37.7368068,39.4490532 37.668585,39.4546253 37.5994413,39.4574113 C36.8969409,39.4982733 36.1879871,39.5298484 35.4707361,39.5521368 C35.3803883,39.5549228 35.2900405,39.5567802 35.1978489,39.5604949 C34.4713787,39.5799972 33.7402989,39.59207 33.0009219,39.59207 C32.9741863,39.59207 32.9465288,39.5911414 32.9207152,39.5911414 C32.2311217,39.5911414 31.5479816,39.5790685 30.869451,39.5623523 C30.7413047,39.5586375 30.6131583,39.5549228 30.4859338,39.5512081 C29.7944964,39.5298484 29.1104344,39.4982733 28.4328258,39.4592687 C28.3387903,39.4546253 28.2465987,39.4471959 28.154407,39.4416238 C26.708842,39.3524704 25.2927783,39.2280272 23.9145132,39.0645794 C12.9621456,37.7709273 4.3330074,34.1992214 1.2372119,29.6663311 C0.431456907,28.485978 0,29.1267676 0,29.6626164 L0,40.8495037 C0,49.1741971 14.6151418,55.9266342 32.7049867,56 L33.2940914,55.997214 L33.2940914,56 C33.3586255,56 33.4231597,55.997214 33.4876938,55.997214 L33.8481632,55.9953566 L33.8527727,55.9897845 C51.6835592,55.78176 66,49.0869011 66,40.848575 L66,29.6616877 C65.9990781,29.1267676 65.5676212,28.485978 64.76371,29.6663311 L64.76371,29.6663311 Z" id="Shape" fill="#F9A528"></path>
            </g>
        </g>
    </g>
</svg>