<?xml version="1.0" encoding="utf-8"?>
<!-- Generator: Adobe Illustrator 13.0.3, SVG Export Plug-In . SVG Version: 6.00 Build 14948)  -->
<!DOCTYPE svg PUBLIC "-//W3C//DTD SVG 1.1//EN" "http://www.w3.org/Graphics/SVG/1.1/DTD/svg11.dtd">
<svg version="1.1" id="レイヤー_1" xmlns="http://www.w3.org/2000/svg" xmlns:xlink="http://www.w3.org/1999/xlink" x="0px"
	 y="0px" width="76px" height="76px" viewBox="0 0 76 76" enable-background="new 0 0 76 76" xml:space="preserve">
<g>
	<g>
		<path id="rect1313_65_" fill="#FDFCFD" d="M0.009,0h75.982C75.996,0,76,0.004,76,0.009V75.99c0,0.006-0.004,0.01-0.009,0.01H0.009
			C0.004,76,0,75.996,0,75.99V0.009C0,0.004,0.004,0,0.009,0z"/>
		<path id="path1341_65_" fill="#757575" d="M75.99,0C75.995,0,76,0.005,76,0.01v75.981C76,75.996,75.995,76,75.99,76H0.009
			C0.004,76,0,75.996,0,75.991L75.99,0z"/>
		<polygon id="rect1311_65_" fill="#B9B9B9" points="8.508,8.5 67.492,8.5 67.5,8.508 67.5,67.491 67.492,67.5 8.508,67.5 
			8.5,67.491 8.5,8.508 		"/>
	</g>
	<g>
		<polygon points="35.999,55.5 35.999,16.5 40,16.5 40,55.5 35.999,55.5 		"/>
		<polygon fill="#FF0000" points="40,13.875 19.375,27 40,40.125 		"/>
		<rect x="28.571" y="51.625" width="18.857" height="5.5"/>
		<rect x="20.222" y="56.459" width="35.555" height="7.041"/>
	</g>
</g>
</svg>
