<?xml version="1.0" encoding="UTF-8"?>
<!-- Generator: Adobe Illustrator 13.0.3, SVG Export Plug-In . SVG Version: 6.00 Build 14948)  -->
<!DOCTYPE svg PUBLIC "-//W3C//DTD SVG 1.1//EN" "http://www.w3.org/Graphics/SVG/1.1/DTD/svg11.dtd">
<svg version="1.1" id="レイヤー_1" xmlns="http://www.w3.org/2000/svg" xmlns:xlink="http://www.w3.org/1999/xlink" x="0px" y="0px" width="76px" height="76px" viewBox="0 0 76 76" enable-background="new 0 0 76 76" xml:space="preserve">
<g id="rect1313_66_">
	<polygon fill="#B9B9B9" points="75.001,75.001 1,75.001 1,1 75.001,1  "/>
	<path fill="#757575" d="M75.991,0C75.996,0,76,0.004,76,0.009V75.99c0,0.006-0.004,0.01-0.009,0.01H0.009   C0.004,76,0,75.996,0,75.99V0.009C0,0.004,0.004,0,0.009,0H75.991 M74,2H2v72h72V2L74,2z"/>
</g>
<path fill="#008200" d="M51.256,26.134v-4.545c0-1.545-1.293-2.796-2.892-2.796H27.393c-1.593,0-2.892,1.251-2.892,2.796v4.545  H8.593v-5.942C8.593,14.011,13.778,9,20.163,9h35.433c6.388,0,11.569,5.011,11.569,11.191c0,4.064,1.287,8.448-2.521,11.417  c-2.649,2.062-5.948,3.822-8.757,5.743c-6.993,4.777-14.083,9.431-21.093,14.188c-0.91,0.621-3.707,3.276-4.87,3.276  c0.012,0,37.602,0,37.602,0V66H8.774c0-4.529-1.605-9.863,2.609-13.253c2.949-2.372,6.773-4.315,9.932-6.502  c8-5.557,16.259-10.779,24.287-16.306C46.188,29.535,51.256,26.874,51.256,26.134z"/>
</svg>