<?xml version="1.0" encoding="UTF-8"?>
<!-- Generator: Adobe Illustrator 13.0.3, SVG Export Plug-In . SVG Version: 6.00 Build 14948)  -->
<!DOCTYPE svg PUBLIC "-//W3C//DTD SVG 1.1//EN" "http://www.w3.org/Graphics/SVG/1.1/DTD/svg11.dtd">
<svg version="1.1" id="レイヤー_1" xmlns="http://www.w3.org/2000/svg" xmlns:xlink="http://www.w3.org/1999/xlink" x="0px" y="0px" width="76px" height="76px" viewBox="0 0 76 76" enable-background="new 0 0 76 76" xml:space="preserve">
<g id="rect1313_66_">
	<polygon fill="#B9B9B9" points="75.001,75.001 1,75.001 1,1 75.001,1  "/>
	<path fill="#757575" d="M75.991,0C75.996,0,76,0.004,76,0.009V75.99c0,0.006-0.004,0.01-0.009,0.01H0.009   C0.004,76,0,75.996,0,75.99V0.009C0,0.004,0.004,0,0.009,0H75.991 M74,2H2v72h72V2L74,2z"/>
</g>
<path fill="#840000" d="M60.78,32.065c1.765,0.757,3.006,1.726,3.869,2.922c1.324,1.837,1.736,4.211,1.736,7.139  c0,0.012,0,10.689,0,10.689c0,6.291-2.494,12.48-11.401,13.182H9.497V54.953h39.074c1.576,0,2.851-1.279,2.851-2.85v-6.412  c0-1.57-1.274-2.852-2.851-2.852L9.497,42.852V9.001l57.006,0v11.396H26.031v11.668"/>
</svg>