<?xml version="1.0" encoding="utf-8"?>
<!-- Generator: Adobe Illustrator 13.0.3, SVG Export Plug-In . SVG Version: 6.00 Build 14948)  -->
<!DOCTYPE svg PUBLIC "-//W3C//DTD SVG 1.1//EN" "http://www.w3.org/Graphics/SVG/1.1/DTD/svg11.dtd">
<svg version="1.1" id="レイヤー_1" xmlns="http://www.w3.org/2000/svg" xmlns:xlink="http://www.w3.org/1999/xlink" x="0px"
	 y="0px" width="76px" height="76px" viewBox="0 0 76 76" enable-background="new 0 0 76 76" xml:space="preserve">
<g id="rect1313_66_">
	<polygon fill="#B9B9B9" points="75.001,75.001 1,75.001 1,1 75.001,1 	"/>
	<path fill="#757575" d="M75.991,0C75.996,0,76,0.004,76,0.009V75.99c0,0.006-0.004,0.01-0.009,0.01H0.009
		C0.004,76,0,75.996,0,75.99V0.009C0,0.004,0.004,0,0.009,0H75.991 M74,2H2v72h72V2L74,2z"/>
</g>
<path fill="#008284" d="M66.856,23.967v-3.565c0-6.296-5.109-11.4-11.399-11.4H20.544c-6.29,0-11.4,5.104-11.4,11.4v34.197
	c0,6.29,5.11,11.4,11.4,11.4h34.913c6.29,0,11.399-5.11,11.399-11.4V43.911c0-4.984-4.921-12.11-11.405-12.11H27.669
	c-1.569,0-2.85-1.28-2.85-2.85v-6.412c0-1.575,1.28-2.851,2.85-2.851h20.663c1.569,0,2.85,1.275,2.85,2.851v1.005L66.856,23.967z
	 M25.531,47.474c0-1.569,1.28-2.85,2.851-2.85h20.662c1.57,0,2.851,1.28,2.851,2.85v6.412c0,1.57-1.28,2.851-2.851,2.851H28.382
	c-1.57,0-2.851-1.28-2.851-2.851V47.474z"/>
</svg>
