<?xml version="1.0" encoding="utf-8"?>
<!-- Generator: Adobe Illustrator 13.0.3, SVG Export Plug-In . SVG Version: 6.00 Build 14948)  -->
<!DOCTYPE svg PUBLIC "-//W3C//DTD SVG 1.1//EN" "http://www.w3.org/Graphics/SVG/1.1/DTD/svg11.dtd">
<svg version="1.1" id="レイヤー_1" xmlns="http://www.w3.org/2000/svg" xmlns:xlink="http://www.w3.org/1999/xlink" x="0px"
	 y="0px" width="76px" height="76px" viewBox="0 0 76 76" enable-background="new 0 0 76 76" xml:space="preserve">
<g id="rect1313_66_">
	<polygon fill="#B9B9B9" points="75.001,75.001 1,75.001 1,1 75.001,1 	"/>
	<path fill="#757575" d="M75.991,0C75.996,0,76,0.004,76,0.009V75.99c0,0.006-0.004,0.01-0.009,0.01H0.009
		C0.004,76,0,75.996,0,75.99V0.009C0,0.004,0.004,0,0.009,0H75.991 M74,2H2v72h72V2L74,2z"/>
</g>
<path fill="#757575" d="M66.856,31.087c0,2.377-0.729,4.581-1.977,6.413c1.247,1.826,1.977,4.036,1.977,6.412V54.6
	c0,6.29-5.104,11.4-11.4,11.4H20.544c-6.29,0-11.4-5.11-11.4-11.4V43.912c0-2.376,0.729-4.586,1.982-6.412
	c-1.252-1.832-1.982-4.036-1.982-6.413V20.4c0-6.295,5.11-11.4,11.4-11.4h34.912c6.296,0,11.4,5.104,11.4,11.4V31.087z
	 M51.182,22.538c0-1.575-1.275-2.85-2.851-2.85H27.669c-1.57,0-2.851,1.275-2.851,2.85v6.413c0,1.569,1.28,2.85,2.851,2.85h20.662
	c1.575,0,2.851-1.28,2.851-2.85V22.538z M51.182,46.05c0-1.575-1.275-2.85-2.851-2.85H27.669c-1.57,0-2.851,1.274-2.851,2.85v6.413
	c0,1.569,1.28,2.85,2.851,2.85h20.662c1.575,0,2.851-1.28,2.851-2.85V46.05z"/>
</svg>
