<svg xmlns="http://www.w3.org/2000/svg" xmlns:xlink="http://www.w3.org/1999/xlink" viewBox="0 0 478 100"><defs><style>.a{opacity:0.18;mix-blend-mode:multiply;}.b{fill:#fff;}.c{isolation:isolate;}.d{fill:#5abd80;}.e,.f{fill:none;stroke-miterlimit:10;}.e{stroke:#000;}.f{stroke:#fff;}.g{fill:#4b4b4b;}</style><symbol id="a" viewBox="0 0 26.48 28.48"><g class="a"><rect y="2" width="26.48" height="26.48"/></g><rect class="b" width="26.48" height="26.48"/></symbol></defs><g class="c"><rect class="d" width="478" height="100"/><g class="a"><polygon class="e" points="89.03 74.38 89.03 37.65 54.46 19.28 19.89 37.65 19.89 74.38 54.46 92.74 89.03 74.38"/></g><polygon class="f" points="89.03 65.38 89.03 28.65 54.46 10.28 19.89 28.65 19.89 65.38 54.46 83.74 89.03 65.38"/><path class="b" d="M42.15,48.39a11.76,11.76,0,0,1,3.59-8.94,12.8,12.8,0,0,1,17.46,0,11.82,11.82,0,0,1,3.57,8.92,11.77,11.77,0,0,1-3.57,8.9,12.82,12.82,0,0,1-17.46,0A11.72,11.72,0,0,1,42.15,48.39ZM49.68,43a6.82,6.82,0,0,0-2,5.33,6.77,6.77,0,0,0,2,5.32,7.18,7.18,0,0,0,9.58,0,6.83,6.83,0,0,0,2-5.32,6.66,6.66,0,0,0-6.81-7.18A7,7,0,0,0,49.68,43Z"/><use width="26.48" height="28.48" transform="translate(211.75 13.41) scale(1.31)" xlink:href="#a"/><polygon class="g" points="229.16 26.11 222.78 37.16 235.54 37.16 229.16 26.11"/><use width="26.48" height="28.48" transform="translate(211.75 54.75) scale(1.31)" xlink:href="#a"/><polygon class="g" points="229.16 81.37 235.54 70.31 222.78 70.31 229.16 81.37"/><use width="26.48" height="28.48" transform="translate(256.75 35.85) scale(1.31)" xlink:href="#a"/><polygon class="g" points="281.36 53.15 270.3 46.77 270.3 59.53 281.36 53.15"/><use width="26.48" height="28.48" transform="translate(165.31 35.29) scale(1.31)" xlink:href="#a"/><polygon class="g" points="174 52.69 185.06 59.07 185.06 46.31 174 52.69"/></g></svg>