<svg xmlns="http://www.w3.org/2000/svg" xmlns:xlink="http://www.w3.org/1999/xlink" viewBox="0 0 478 100"><defs><style>.a{opacity:0.18;mix-blend-mode:multiply;}.b{fill:#fff;}.c{isolation:isolate;}.d{fill:#72cee7;}.e,.f{fill:none;stroke-miterlimit:10;}.e{stroke:#000;}.f{stroke:#fff;}</style><symbol id="a" viewBox="0 0 6.44 8.44"><g class="a"><circle cx="3.22" cy="5.22" r="3.22"/></g><circle class="b" cx="3.22" cy="3.22" r="3.22"/></symbol></defs><g class="c"><rect class="d" width="478" height="100"/><path class="b" d="M192.84,75.76a1.12,1.12,0,0,1-.4.87,1.39,1.39,0,0,1-1,.36,1.35,1.35,0,0,1-1.09-.48,1.7,1.7,0,0,1-.4-1.13,2.9,2.9,0,0,1,.82-2.25,3,3,0,0,1,1.81-.83v1.09a1.67,1.67,0,0,0-.91.39,1.11,1.11,0,0,0-.45.84.78.78,0,0,1,.35-.08,1.25,1.25,0,0,1,.92.34A1.2,1.2,0,0,1,192.84,75.76Zm3.36,0a1.15,1.15,0,0,1-.4.87,1.39,1.39,0,0,1-1,.36,1.31,1.31,0,0,1-1.08-.48,1.74,1.74,0,0,1-.39-1.13A2.83,2.83,0,0,1,196,72.3v1.09a1.67,1.67,0,0,0-.91.39,1.11,1.11,0,0,0-.45.84.78.78,0,0,1,.35-.08,1.25,1.25,0,0,1,.92.34A1.2,1.2,0,0,1,196.2,75.76Z"/><path class="b" d="M207.52,83.74H205V79.23h-4.53v4.51h-2.53V72.4h2.53v4.45H205V72.4h2.54Z"/><path class="b" d="M214.93,80.88l2,.58a3.28,3.28,0,0,1-1.26,1.81,3.88,3.88,0,0,1-2.4.71,4.31,4.31,0,0,1-3-7.26,3.84,3.84,0,0,1,2.79-1.17A3.91,3.91,0,0,1,216,76.63a4.09,4.09,0,0,1,1.07,3,3.32,3.32,0,0,1-.05.75h-5.54a1.47,1.47,0,0,0,.56,1.1,1.93,1.93,0,0,0,1.25.44A1.52,1.52,0,0,0,214.93,80.88Zm-3.36-2.06h3.19a1.49,1.49,0,0,0-.43-.95,1.55,1.55,0,0,0-1.17-.4,1.49,1.49,0,0,0-1.12.42A1.47,1.47,0,0,0,211.57,78.82Z"/><path class="b" d="M221.11,83.74h-2.43V72.16h2.43Z"/><path class="b" d="M225.68,83.74h-2.43V72.16h2.43Z"/><path class="b" d="M231.48,75.55a4.12,4.12,0,0,1,3,1.19,4.39,4.39,0,0,1,0,6.05,4.27,4.27,0,0,1-6-6.05A4.14,4.14,0,0,1,231.48,75.55Zm0,6.19a1.75,1.75,0,0,0,1.27-.51,2.34,2.34,0,0,0,0-2.94,1.78,1.78,0,0,0-1.27-.5,1.75,1.75,0,0,0-1.27.51,2.28,2.28,0,0,0,0,2.92A1.72,1.72,0,0,0,231.48,81.74Z"/><path class="b" d="M236.05,73.55a1.14,1.14,0,0,1,.39-.87,1.37,1.37,0,0,1,1-.36,1.34,1.34,0,0,1,1.08.48,1.72,1.72,0,0,1,.41,1.14,2.89,2.89,0,0,1-.82,2.23,3,3,0,0,1-1.81.82V75.92a1.7,1.7,0,0,0,.9-.38,1.19,1.19,0,0,0,.46-.85.82.82,0,0,1-.35.08,1.21,1.21,0,0,1-.91-.35A1.18,1.18,0,0,1,236.05,73.55Zm3.33,0a1.17,1.17,0,0,1,.38-.87,1.41,1.41,0,0,1,1-.36,1.34,1.34,0,0,1,1.07.48,1.76,1.76,0,0,1,.4,1.14,2.89,2.89,0,0,1-.81,2.23,3,3,0,0,1-1.8.82V75.92a1.7,1.7,0,0,0,.9-.38,1.19,1.19,0,0,0,.46-.85.82.82,0,0,1-.35.08,1.2,1.2,0,0,1-.91-.35A1.18,1.18,0,0,1,239.38,73.55Z"/><path class="b" d="M247.94,74.37a1.38,1.38,0,0,1-.42-1,1.37,1.37,0,0,1,.42-1,1.34,1.34,0,0,1,1-.41,1.4,1.4,0,0,1,1,.41,1.37,1.37,0,0,1,.42,1,1.38,1.38,0,0,1-.42,1,1.44,1.44,0,0,1-1,.41A1.38,1.38,0,0,1,247.94,74.37Zm2.22,9.37h-2.43V75.79h2.43Z"/><path class="b" d="M254.72,79.18v4.56h-2.43V75.79h2.35v.91a2.11,2.11,0,0,1,.94-.82,3,3,0,0,1,1.29-.3,2.65,2.65,0,0,1,2.16.89,3.45,3.45,0,0,1,.73,2.28v5h-2.43V79.17a1.45,1.45,0,0,0-.33-1,1.22,1.22,0,0,0-1-.38,1.24,1.24,0,0,0-.95.39A1.43,1.43,0,0,0,254.72,79.18Z"/><path class="b" d="M268.1,83.74h-2.35V72.16h2.38v4.38a2,2,0,0,1,.9-.67,3.46,3.46,0,0,1,1.4-.27,3.4,3.4,0,0,1,2.7,1.16,4.38,4.38,0,0,1,1,3,4.28,4.28,0,0,1-1.06,3,3.5,3.5,0,0,1-2.73,1.18,3,3,0,0,1-1.36-.3,2,2,0,0,1-.88-.77Zm3.6-4a2,2,0,0,0-.51-1.47,1.9,1.9,0,0,0-2.57,0,2,2,0,0,0-.52,1.47,1.91,1.91,0,0,0,.53,1.46,1.82,1.82,0,0,0,2.55,0A2,2,0,0,0,271.7,79.76Z"/><path class="b" d="M280.75,75.79v2.4a3.48,3.48,0,0,0-.76-.08,1.81,1.81,0,0,0-1.34.53,2.23,2.23,0,0,0-.52,1.63v3.47H275.7V75.79h2.35v1.07a1.84,1.84,0,0,1,.88-.88,2.81,2.81,0,0,1,1.18-.27A2.38,2.38,0,0,1,280.75,75.79Z"/><path class="b" d="M281.81,81.55a2.11,2.11,0,0,1,.66-1.62,3.09,3.09,0,0,1,1.69-.78l1.87-.29c.39,0,.58-.23.58-.54a.76.76,0,0,0-.31-.62,1.39,1.39,0,0,0-.86-.24,1.35,1.35,0,0,0-1,.34,1.2,1.2,0,0,0-.39.82L282,78.19a2.7,2.7,0,0,1,1-1.81,4.36,4.36,0,0,1,5.17,0,3,3,0,0,1,.86,2.2v3.89a6.88,6.88,0,0,0,.09,1.23h-2.19a4,4,0,0,1-.08-.89A2.44,2.44,0,0,1,284.56,84a2.78,2.78,0,0,1-2-.72A2.28,2.28,0,0,1,281.81,81.55Zm3.34.66a1.52,1.52,0,0,0,1-.37,1.55,1.55,0,0,0,.42-1.22v-.35l-1.5.24c-.6.1-.9.39-.9.88a.82.82,0,0,0,.23.58A1,1,0,0,0,285.15,82.21Z"/><path class="b" d="M291.23,74.37a1.41,1.41,0,0,1-.41-1,1.4,1.4,0,0,1,.41-1,1.35,1.35,0,0,1,1-.41,1.43,1.43,0,0,1,1.44,1.42,1.39,1.39,0,0,1-.43,1,1.41,1.41,0,0,1-1,.41A1.39,1.39,0,0,1,291.23,74.37Zm2.23,9.37H291V75.79h2.43Z"/><path class="b" d="M298,83.74h-2.43V72.16H298Z"/><path class="b" d="M302.59,83.74h-2.43V72.16h2.43Z"/><path class="b" d="M309.94,80.88l2,.58a3.28,3.28,0,0,1-1.26,1.81,3.88,3.88,0,0,1-2.4.71,4.3,4.3,0,0,1-3-7.26,3.81,3.81,0,0,1,2.79-1.17,3.91,3.91,0,0,1,2.92,1.08,4.09,4.09,0,0,1,1.06,3,3.61,3.61,0,0,1,0,.75h-5.54a1.47,1.47,0,0,0,.56,1.1,1.91,1.91,0,0,0,1.25.44A1.53,1.53,0,0,0,309.94,80.88Zm-3.36-2.06h3.18a1.43,1.43,0,0,0-.42-.95,1.58,1.58,0,0,0-1.18-.4,1.51,1.51,0,0,0-1.12.42A1.45,1.45,0,0,0,306.58,78.82Z"/><g class="a"><polygon class="e" points="89.03 74.38 89.03 37.65 54.46 19.28 19.89 37.65 19.89 74.38 54.46 92.74 89.03 74.38"/></g><polygon class="f" points="89.03 65.38 89.03 28.65 54.46 10.28 19.89 28.65 19.89 65.38 54.46 83.74 89.03 65.38"/><path class="b" d="M55.71,51.7H52.07v8.52H46.79V36.53h8.92a8.21,8.21,0,0,1,5.87,2.13,7.21,7.21,0,0,1,2.25,5.45,7.16,7.16,0,0,1-2.25,5.48A8.29,8.29,0,0,1,55.71,51.7ZM52.1,47.15h3.08a3.57,3.57,0,0,0,2.44-.82,2.76,2.76,0,0,0,.93-2.19,2.81,2.81,0,0,0-.92-2.22,3.57,3.57,0,0,0-2.45-.82H52.1Z"/><use width="6.44" height="8.44" transform="matrix(-0.77, 0, 0, 0.77, 204.53, 36.6)" xlink:href="#a"/><use width="6.44" height="8.44" transform="translate(124.36 36.6) scale(0.77)" xlink:href="#a"/><use width="6.44" height="8.44" transform="translate(124.36 45.04) scale(0.77)" xlink:href="#a"/><use width="6.44" height="8.44" transform="translate(115.14 45.04) scale(0.77)" xlink:href="#a"/><use width="6.44" height="8.44" transform="translate(124.36 53.49) scale(0.77)" xlink:href="#a"/><use width="6.44" height="8.44" transform="matrix(-0.77, 0, 0, 0.77, 143.88, 36.6)" xlink:href="#a"/><use width="6.44" height="8.44" transform="matrix(-0.77, 0, 0, 0.77, 143.88, 45.04)" xlink:href="#a"/><use width="6.44" height="8.44" transform="matrix(-0.77, 0, 0, 0.77, 153.1, 45.04)" xlink:href="#a"/><use width="6.44" height="8.44" transform="matrix(-0.77, 0, 0, 0.77, 143.88, 53.49)" xlink:href="#a"/><use width="6.44" height="8.44" transform="matrix(-0.77, 0, 0, 0.77, 169.98, 45.04)" xlink:href="#a"/><use width="6.44" height="8.44" transform="matrix(-0.77, 0, 0, 0.77, 179.2, 36.6)" xlink:href="#a"/><use width="6.44" height="8.44" transform="matrix(-0.77, 0, 0, 0.77, 195.32, 45.04)" xlink:href="#a"/><use width="6.44" height="8.44" transform="matrix(-0.77, 0, 0, 0.77, 204.53, 45.04)" xlink:href="#a"/><use width="6.44" height="8.44" transform="matrix(-0.77, 0, 0, 0.77, 195.32, 53.49)" xlink:href="#a"/><use width="6.44" height="8.44" transform="matrix(-0.77, 0, 0, 0.77, 219.88, 36.6)" xlink:href="#a"/><use width="6.44" height="8.44" transform="matrix(-0.77, 0, 0, 0.77, 229.09, 45.04)" xlink:href="#a"/><use width="6.44" height="8.44" transform="matrix(-0.77, 0, 0, 0.77, 271.31, 36.6)" xlink:href="#a"/><use width="6.44" height="8.44" transform="matrix(-0.77, 0, 0, 0.77, 271.31, 45.04)" xlink:href="#a"/><use width="6.44" height="8.44" transform="matrix(-0.77, 0, 0, 0.77, 280.53, 45.04)" xlink:href="#a"/><use width="6.44" height="8.44" transform="matrix(-0.77, 0, 0, 0.77, 296.65, 36.6)" xlink:href="#a"/><use width="6.44" height="8.44" transform="matrix(-0.77, 0, 0, 0.77, 305.86, 45.04)" xlink:href="#a"/><use width="6.44" height="8.44" transform="matrix(-0.77, 0, 0, 0.77, 322.75, 36.6)" xlink:href="#a"/><use width="6.44" height="8.44" transform="matrix(-0.77, 0, 0, 0.77, 322.75, 45.04)" xlink:href="#a"/><use width="6.44" height="8.44" transform="matrix(-0.77, 0, 0, 0.77, 322.75, 53.49)" xlink:href="#a"/><use width="6.44" height="8.44" transform="matrix(-0.77, 0, 0, 0.77, 348.08, 36.6)" xlink:href="#a"/><use width="6.44" height="8.44" transform="matrix(-0.77, 0, 0, 0.77, 348.08, 45.04)" xlink:href="#a"/><use width="6.44" height="8.44" transform="matrix(-0.77, 0, 0, 0.77, 348.08, 53.49)" xlink:href="#a"/><use width="6.44" height="8.44" transform="matrix(-0.77, 0, 0, 0.77, 372.64, 36.6)" xlink:href="#a"/><use width="6.44" height="8.44" transform="matrix(-0.77, 0, 0, 0.77, 381.86, 45.04)" xlink:href="#a"/><use width="6.44" height="8.44" transform="matrix(-0.77, 0, 0, 0.77, 372.64, 53.49)" xlink:href="#a"/></g></svg>