<svg xmlns="http://www.w3.org/2000/svg" xmlns:xlink="http://www.w3.org/1999/xlink" viewBox="0 0 478 177.66"><defs><style>.a{mix-blend-mode:overlay;}.b{opacity:0.18;mix-blend-mode:multiply;}.c,.e{fill:none;stroke-miterlimit:10;}.c{stroke:#000;}.d{fill:#5abd80;}.e{stroke:#fff;}.f{fill:#fff;}.g{fill:#72cee7;}.h{fill:#ed2627;}.i{fill:#fec75e;}.j{fill:#63cebf;}.k{fill:#79c675;}.l{fill:#a3c86c;}.m{fill:#f08d34;}.n{fill:#ea4e33;}.o{fill:#5ed0ea;}</style><symbol id="a" viewBox="0 0 72.14 81.59"><g class="a"><g class="b"><polygon points="71.64 62.66 71.64 25.93 37.07 7.57 2.5 25.93 2.5 62.66 37.07 81.03 71.64 62.66"/><polygon class="c" points="71.64 62.66 71.64 25.93 37.07 7.57 2.5 25.93 2.5 62.66 37.07 81.03 71.64 62.66"/></g><polygon class="g" points="69.64 55.66 69.64 18.93 35.07 0.57 0.5 18.93 0.5 55.66 35.07 74.03 69.64 55.66"/><polygon class="e" points="69.64 55.66 69.64 18.93 35.07 0.57 0.5 18.93 0.5 55.66 35.07 74.03 69.64 55.66"/></g><path class="f" d="M36.32,42H32.68V50.5H27.4V26.81h8.92A8.17,8.17,0,0,1,42.19,29a7.17,7.17,0,0,1,2.25,5.44,7.16,7.16,0,0,1-2.25,5.48A8.24,8.24,0,0,1,36.32,42Zm-3.61-4.55h3.08a3.61,3.61,0,0,0,2.44-.81,3.09,3.09,0,0,0,0-4.41,3.52,3.52,0,0,0-2.45-.82H32.71Z"/></symbol><symbol id="b" viewBox="0 0 72.14 81.59"><g class="a"><g class="b"><polygon points="71.64 62.66 71.64 25.93 37.07 7.57 2.5 25.93 2.5 62.66 37.07 81.03 71.64 62.66"/><polygon class="c" points="71.64 62.66 71.64 25.93 37.07 7.57 2.5 25.93 2.5 62.66 37.07 81.03 71.64 62.66"/></g><polygon class="d" points="69.64 55.66 69.64 18.93 35.07 0.57 0.5 18.93 0.5 55.66 35.07 74.03 69.64 55.66"/><polygon class="e" points="69.64 55.66 69.64 18.93 35.07 0.57 0.5 18.93 0.5 55.66 35.07 74.03 69.64 55.66"/></g><path class="f" d="M23.12,38.67a11.8,11.8,0,0,1,3.6-8.94,12.18,12.18,0,0,1,8.73-3.42,12.11,12.11,0,0,1,8.72,3.44,11.8,11.8,0,0,1,3.58,8.92,11.77,11.77,0,0,1-3.58,8.91A12.14,12.14,0,0,1,35.45,51a12.18,12.18,0,0,1-8.73-3.42A11.75,11.75,0,0,1,23.12,38.67Zm7.54-5.36a6.8,6.8,0,0,0-2.06,5.33A6.74,6.74,0,0,0,30.66,44a7.14,7.14,0,0,0,9.57,0,6.76,6.76,0,0,0,2-5.31,6.69,6.69,0,0,0-6.82-7.19A6.92,6.92,0,0,0,30.66,33.31Z"/></symbol><symbol id="c" viewBox="0 0 72.14 81.59"><g class="a"><g class="b"><polygon points="71.64 62.66 71.64 25.93 37.07 7.57 2.5 25.93 2.5 62.66 37.07 81.03 71.64 62.66"/><polygon class="c" points="71.64 62.66 71.64 25.93 37.07 7.57 2.5 25.93 2.5 62.66 37.07 81.03 71.64 62.66"/></g><polygon class="i" points="69.64 55.66 69.64 18.93 35.07 0.57 0.5 18.93 0.5 55.66 35.07 74.03 69.64 55.66"/><polygon class="e" points="69.64 55.66 69.64 18.93 35.07 0.57 0.5 18.93 0.5 55.66 35.07 74.03 69.64 55.66"/></g><path class="f" d="M42.17,48.65A9.7,9.7,0,0,1,35.44,51a9.71,9.71,0,0,1-6.74-2.38A8.56,8.56,0,0,1,26.05,42V26.81h5.28v14.7a4.4,4.4,0,0,0,1.08,3.21,4.08,4.08,0,0,0,3,1.1,4.06,4.06,0,0,0,3-1.1,4.41,4.41,0,0,0,1.09-3.21V26.81h5.28V42A8.57,8.57,0,0,1,42.17,48.65Z"/></symbol><symbol id="d" viewBox="0 0 72.14 81.59"><g class="a"><g class="b"><polygon points="71.64 62.66 71.64 25.93 37.07 7.57 2.5 25.93 2.5 62.66 37.07 81.03 71.64 62.66"/><polygon class="c" points="71.64 62.66 71.64 25.93 37.07 7.57 2.5 25.93 2.5 62.66 37.07 81.03 71.64 62.66"/></g><polygon class="h" points="69.64 55.66 69.64 18.93 35.07 0.57 0.5 18.93 0.5 55.66 35.07 74.03 69.64 55.66"/><polygon class="e" points="69.64 55.66 69.64 18.93 35.07 0.57 0.5 18.93 0.5 55.66 35.07 74.03 69.64 55.66"/></g><path class="f" d="M38.54,50.52,34.3,41.7H32.43v8.82H27.15V26.83h9.39a7.52,7.52,0,0,1,5.56,2.11,7.14,7.14,0,0,1,2.12,5.31A7.07,7.07,0,0,1,43,38.41a6.82,6.82,0,0,1-3.44,2.52l4.81,9.59ZM32.43,37.16h3.11A3.52,3.52,0,0,0,38,36.37a3,3,0,0,0,0-4.19,3.62,3.62,0,0,0-2.47-.77H32.43Z"/></symbol></defs><circle class="j" cx="80.57" cy="132.27" r="9.86"/><circle class="j" cx="101.27" cy="147.33" r="7.46"/><circle class="d" cx="132.31" cy="132.27" r="9.86"/><circle class="d" cx="153.01" cy="147.33" r="6.97"/><circle class="k" cx="184.05" cy="132.27" r="9.86"/><circle class="k" cx="204.75" cy="147.33" r="6.94"/><circle class="l" cx="235.79" cy="132.27" r="9.86"/><circle class="l" cx="256.49" cy="147.33" r="7.46"/><circle class="i" cx="287.53" cy="132.27" r="9.86"/><circle class="i" cx="305.93" cy="145.03" r="7.55"/><circle class="m" cx="339.27" cy="132.27" r="9.86"/><circle class="m" cx="359.97" cy="147.33" r="6.97"/><circle class="n" cx="391.02" cy="132.27" r="9.86"/><circle class="n" cx="411.71" cy="147.33" r="7.17"/><circle class="h" cx="431.62" cy="127.62" r="6.97"/><circle class="o" cx="54.59" cy="142.13" r="6.97"/><circle class="o" cx="44.73" cy="122.42" r="4.93"/><circle class="j" cx="79.46" cy="37.81" r="8.41"/><circle class="j" cx="101.27" cy="47.66" r="9.86"/><circle class="d" cx="130.87" cy="34.05" r="8.41"/><circle class="d" cx="153.01" cy="47.66" r="9.86"/><circle class="k" cx="184.05" cy="32.6" r="9.86"/><circle class="k" cx="204.75" cy="47.66" r="9.86"/><circle class="l" cx="232.47" cy="35.93" r="6.53"/><circle class="l" cx="256.49" cy="47.66" r="9.86"/><circle class="i" cx="287.53" cy="32.6" r="9.86"/><circle class="i" cx="308.23" cy="47.66" r="9.86"/><circle class="m" cx="336.51" cy="35.37" r="7.09"/><circle class="m" cx="359.97" cy="47.66" r="9.86"/><circle class="n" cx="385.84" cy="29.4" r="8.41"/><circle class="n" cx="411.71" cy="47.66" r="9.86"/><circle class="h" cx="435.86" cy="42.46" r="3.92"/><circle class="o" cx="52.53" cy="46.34" r="7.8"/><circle class="o" cx="38.13" cy="57.52" r="4.45"/><use width="72.14" height="81.59" transform="translate(54.16 25.52) scale(1.56)" xlink:href="#a"/><use width="72.14" height="81.59" transform="translate(141.66 25.52) scale(1.56)" xlink:href="#b"/><use width="72.14" height="81.59" transform="translate(229.74 25.52) scale(1.56)" xlink:href="#c"/><use width="72.14" height="81.59" transform="translate(318.38 25.94) scale(1.56)" xlink:href="#d"/></svg>