<svg xmlns="http://www.w3.org/2000/svg" xmlns:xlink="http://www.w3.org/1999/xlink" viewBox="0 0 478 100"><defs><style>.a{fill:#b2b2b2;}.b{fill:#d6d5d5;}.c{fill:#fff;}.d{fill:#a92b22;}.e{clip-path:url(#a);}.f{clip-path:url(#b);}.g{clip-path:url(#c);}.h{clip-path:url(#d);}.i{clip-path:url(#e);}.j{clip-path:url(#f);}.k{clip-path:url(#g);}.l{clip-path:url(#h);}.m{clip-path:url(#i);}.n{clip-path:url(#j);}.o{clip-path:url(#k);}.p{clip-path:url(#l);}.q{clip-path:url(#m);}.r{clip-path:url(#n);}.s{clip-path:url(#o);}.t{clip-path:url(#p);}.u{clip-path:url(#q);}.v{clip-path:url(#r);}.w{clip-path:url(#s);}.x{clip-path:url(#t);}.y{clip-path:url(#u);}.z{clip-path:url(#v);}.aa{clip-path:url(#w);}.ab{isolation:isolate;}.ac{clip-path:url(#x);}.ad{fill:#ed2627;}.ae{opacity:0.18;mix-blend-mode:multiply;}.af,.ag{fill:none;stroke-miterlimit:10;}.af{stroke:#000;}.ag{stroke:#fff;}</style><clipPath id="a"><polygon class="a" points="47.26 26.56 47.26 24.32 52.18 20.59 52.18 22.82 47.26 26.56"/></clipPath><clipPath id="b"><polygon class="a" points="43.73 16.25 43.73 14.02 46.09 8.42 46.09 10.66 43.73 16.25"/></clipPath><clipPath id="c"><polygon class="a" points="6.09 10.66 6.09 8.42 8.48 14.02 8.48 16.25 6.09 10.66"/></clipPath><clipPath id="d"><polygon class="a" points="0 22.82 0 20.59 4.96 24.32 4.96 26.56 0 22.82"/></clipPath><clipPath id="e"><polygon class="b" points="0 33.05 0 30.81 0.89 34.12 0.89 36.35 0 33.05"/></clipPath><clipPath id="f"><polygon class="a" points="0.89 36.35 0.89 34.12 7.1 35 7.1 37.23 0.89 36.35"/></clipPath><clipPath id="g"><polygon class="b" points="7.1 37.23 7.1 35 8.48 37.38 8.48 39.61 7.1 37.23"/></clipPath><clipPath id="h"><polygon class="b" points="6.09 45.21 6.09 42.97 8.54 45.39 8.54 47.63 6.09 45.21"/></clipPath><clipPath id="i"><polygon class="a" points="8.54 47.63 8.54 45.39 14.33 43.18 14.33 45.41 8.54 47.63"/></clipPath><clipPath id="j"><polygon class="b" points="14.33 45.41 14.33 43.18 16.73 44.55 16.73 46.79 14.33 45.41"/></clipPath><clipPath id="k"><polygon class="a" points="16.73 46.79 16.73 44.55 17.54 50.51 17.54 52.74 16.73 46.79"/></clipPath><clipPath id="l"><polygon class="b" points="17.54 52.74 17.54 50.51 20.9 51.4 20.9 53.63 17.54 52.74"/></clipPath><clipPath id="m"><polygon class="a" points="20.9 53.63 20.9 51.4 24.73 46.67 24.73 48.91 20.9 53.63"/></clipPath><clipPath id="n"><rect class="b" x="24.73" y="46.67" width="2.77" height="2.23"/></clipPath><clipPath id="o"><polygon class="a" points="27.5 48.91 27.5 46.67 31.28 51.4 31.28 53.63 27.5 48.91"/></clipPath><clipPath id="p"><polygon class="b" points="31.28 53.63 31.28 51.4 34.64 50.51 34.64 52.74 31.28 53.63"/></clipPath><clipPath id="q"><polygon class="a" points="34.64 52.74 34.64 50.51 35.49 44.55 35.49 46.79 34.64 52.74"/></clipPath><clipPath id="r"><polygon class="b" points="35.49 46.79 35.49 44.55 37.89 43.18 37.89 45.41 35.49 46.79"/></clipPath><clipPath id="s"><polygon class="a" points="37.89 45.41 37.89 43.18 43.63 45.39 43.63 47.63 37.89 45.41"/></clipPath><clipPath id="t"><polygon class="b" points="43.63 47.63 43.63 45.39 46.09 42.97 46.09 45.21 43.63 47.63"/></clipPath><clipPath id="u"><polygon class="a" points="43.73 39.61 43.73 37.38 45.13 35 45.13 37.23 43.73 39.61"/></clipPath><clipPath id="v"><polygon class="a" points="45.13 37.23 45.13 35 51.28 34.12 51.28 36.35 45.13 37.23"/></clipPath><clipPath id="w"><polygon class="b" points="51.28 36.35 51.28 34.12 52.18 30.81 52.18 33.05 51.28 36.35"/></clipPath><clipPath id="x"><path class="c" d="M47.26,27.07l4.92,3.74-.9,3.31L45.12,35l-1.39,2.38L46.09,43l-2.46,2.42-5.74-2.21-2.4,1.37-.85,6-3.36.89L27.5,46.67H24.73L20.9,51.4l-3.36-.89-.81-6-2.4-1.37L8.55,45.39,6.09,43l2.39-5.59L7.1,35,.89,34.12,0,30.81l5-3.74V24.33L0,20.59l.89-3.31L7.1,16.4,8.48,14,6.09,8.42,8.55,6l5.78,2.22,2.4-1.38L17.54.89,20.9,0l3.83,4.72H27.5L31.28,0l3.36.89.85,6,2.4,1.38L43.63,6l2.46,2.42L43.73,14l1.39,2.38,6.16.88.9,3.31-4.92,3.74ZM26.09,12.13A13.57,13.57,0,1,0,39.86,25.69,13.68,13.68,0,0,0,26.09,12.13"/></clipPath><symbol id="y" viewBox="0 0 52.2 58.57"><path class="d" d="M47.28,31.08l4.92-3.79-.9-3.37L45.14,23l-1.38-2.41,2.35-5.69-2.46-2.46-5.74,2.26-2.4-1.4-.85-6-3.36-.9-3.78,4.8H24.74l-3.82-4.8-3.36.9-.81,6.05-2.4,1.4L8.57,12.47,6.11,14.93,8.5,20.62,7.12,23l-6.2.89L0,27.29l5,3.79v2.79l-5,3.8L.92,41l6.2.89L8.5,44.33,6.11,50l2.46,2.46,5.78-2.26,2.4,1.4.81,6.05,3.36.9,3.82-4.8h2.78l3.78,4.8,3.36-.9.85-6.05,2.4-1.4,5.74,2.26L46.11,50l-2.35-5.69,1.38-2.41L51.3,41l.9-3.36-4.92-3.8ZM26.11,46.25A13.78,13.78,0,1,1,39.89,32.48,13.78,13.78,0,0,1,26.11,46.25Z"/><polygon class="a" points="47.26 26.56 47.26 24.32 52.18 20.59 52.18 22.82 47.26 26.56"/><g class="e"><polygon class="a" points="47.26 26.56 47.26 24.32 52.18 20.59 52.18 22.82 47.26 26.56"/></g><polygon class="a" points="43.73 16.25 43.73 14.02 46.09 8.42 46.09 10.66 43.73 16.25"/><g class="f"><polygon class="a" points="43.73 16.25 43.73 14.02 46.09 8.42 46.09 10.66 43.73 16.25"/></g><polygon class="a" points="6.09 10.66 6.09 8.42 8.48 14.02 8.48 16.25 6.09 10.66"/><g class="g"><polygon class="a" points="6.09 10.66 6.09 8.42 8.48 14.02 8.48 16.25 6.09 10.66"/></g><polygon class="a" points="0 22.82 0 20.59 4.96 24.32 4.96 26.56 0 22.82"/><g class="h"><polygon class="a" points="0 22.82 0 20.59 4.96 24.32 4.96 26.56 0 22.82"/></g><polygon class="b" points="0 33.05 0 30.81 0.89 34.12 0.89 36.35 0 33.05"/><g class="i"><polygon class="b" points="0 33.05 0 30.81 0.89 34.12 0.89 36.35 0 33.05"/></g><polygon class="a" points="0.89 36.35 0.89 34.12 7.1 35 7.1 37.23 0.89 36.35"/><g class="j"><polygon class="a" points="0.89 36.35 0.89 34.12 7.1 35 7.1 37.23 0.89 36.35"/></g><polygon class="b" points="7.1 37.23 7.1 35 8.48 37.38 8.48 39.61 7.1 37.23"/><g class="k"><polygon class="b" points="7.1 37.23 7.1 35 8.48 37.38 8.48 39.61 7.1 37.23"/></g><polygon class="b" points="6.09 45.21 6.09 42.97 8.54 45.39 8.54 47.63 6.09 45.21"/><g class="l"><polygon class="b" points="6.09 45.21 6.09 42.97 8.54 45.39 8.54 47.63 6.09 45.21"/></g><polygon class="a" points="8.54 47.63 8.54 45.39 14.33 43.18 14.33 45.41 8.54 47.63"/><g class="m"><polygon class="a" points="8.54 47.63 8.54 45.39 14.33 43.18 14.33 45.41 8.54 47.63"/></g><polygon class="b" points="14.33 45.41 14.33 43.18 16.73 44.55 16.73 46.79 14.33 45.41"/><g class="n"><polygon class="b" points="14.33 45.41 14.33 43.18 16.73 44.55 16.73 46.79 14.33 45.41"/></g><polygon class="a" points="16.73 46.79 16.73 44.55 17.54 50.51 17.54 52.74 16.73 46.79"/><g class="o"><polygon class="a" points="16.73 46.79 16.73 44.55 17.54 50.51 17.54 52.74 16.73 46.79"/></g><polygon class="b" points="17.54 52.74 17.54 50.51 20.9 51.4 20.9 53.63 17.54 52.74"/><g class="p"><polygon class="b" points="17.54 52.74 17.54 50.51 20.9 51.4 20.9 53.63 17.54 52.74"/></g><polygon class="a" points="20.9 53.63 20.9 51.4 24.73 46.67 24.73 48.91 20.9 53.63"/><g class="q"><polygon class="a" points="20.9 53.63 20.9 51.4 24.73 46.67 24.73 48.91 20.9 53.63"/></g><rect class="b" x="24.73" y="46.67" width="2.77" height="2.23"/><g class="r"><rect class="b" x="24.73" y="46.67" width="2.77" height="2.23"/></g><polygon class="a" points="27.5 48.91 27.5 46.67 31.28 51.4 31.28 53.63 27.5 48.91"/><g class="s"><polygon class="a" points="27.5 48.91 27.5 46.67 31.28 51.4 31.28 53.63 27.5 48.91"/></g><polygon class="b" points="31.28 53.63 31.28 51.4 34.64 50.51 34.64 52.74 31.28 53.63"/><g class="t"><polygon class="b" points="31.28 53.63 31.28 51.4 34.64 50.51 34.64 52.74 31.28 53.63"/></g><polygon class="a" points="34.64 52.74 34.64 50.51 35.49 44.55 35.49 46.79 34.64 52.74"/><g class="u"><polygon class="a" points="34.64 52.74 34.64 50.51 35.49 44.55 35.49 46.79 34.64 52.74"/></g><polygon class="b" points="35.49 46.79 35.49 44.55 37.89 43.18 37.89 45.41 35.49 46.79"/><g class="v"><polygon class="b" points="35.49 46.79 35.49 44.55 37.89 43.18 37.89 45.41 35.49 46.79"/></g><polygon class="a" points="37.89 45.41 37.89 43.18 43.63 45.39 43.63 47.63 37.89 45.41"/><g class="w"><polygon class="a" points="37.89 45.41 37.89 43.18 43.63 45.39 43.63 47.63 37.89 45.41"/></g><polygon class="b" points="43.63 47.63 43.63 45.39 46.09 42.97 46.09 45.21 43.63 47.63"/><g class="x"><polygon class="b" points="43.63 47.63 43.63 45.39 46.09 42.97 46.09 45.21 43.63 47.63"/></g><polygon class="a" points="43.73 39.61 43.73 37.38 45.13 35 45.13 37.23 43.73 39.61"/><g class="y"><polygon class="a" points="43.73 39.61 43.73 37.38 45.13 35 45.13 37.23 43.73 39.61"/></g><polygon class="a" points="45.13 37.23 45.13 35 51.28 34.12 51.28 36.35 45.13 37.23"/><g class="z"><polygon class="a" points="45.13 37.23 45.13 35 51.28 34.12 51.28 36.35 45.13 37.23"/></g><polygon class="b" points="51.28 36.35 51.28 34.12 52.18 30.81 52.18 33.05 51.28 36.35"/><g class="aa"><polygon class="b" points="51.28 36.35 51.28 34.12 52.18 30.81 52.18 33.05 51.28 36.35"/></g><path class="a" d="M26.09,12.13a13.86,13.86,0,0,0-9.74,4,14.06,14.06,0,0,0-1.69,2,13.39,13.39,0,0,0-2.35,7.58h0v2.24a13.78,13.78,0,0,1,27.55,0V25.69A13.67,13.67,0,0,0,26.09,12.13Z"/><g class="ab"><path class="c" d="M47.26,27.07l4.92,3.74-.9,3.31L45.12,35l-1.39,2.38L46.09,43l-2.46,2.42-5.74-2.21-2.4,1.37-.85,6-3.36.89L27.5,46.67H24.73L20.9,51.4l-3.36-.89-.81-6-2.4-1.37L8.55,45.39,6.09,43l2.39-5.59L7.1,35,.89,34.12,0,30.81l5-3.74V24.33L0,20.59l.89-3.31L7.1,16.4,8.48,14,6.09,8.42,8.55,6l5.78,2.22,2.4-1.38L17.54.89,20.9,0l3.83,4.72H27.5L31.28,0l3.36.89.85,6,2.4,1.38L43.63,6l2.46,2.42L43.73,14l1.39,2.38,6.16.88.9,3.31-4.92,3.74ZM26.09,12.13A13.57,13.57,0,1,0,39.86,25.69,13.68,13.68,0,0,0,26.09,12.13"/><g class="ac"><path class="c" d="M47.26,27.07l4.92,3.74-.9,3.31L45.12,35l-1.39,2.38L46.09,43l-2.46,2.42-5.74-2.21-2.4,1.37-.85,6-3.36.89L27.5,46.67H24.73L20.9,51.4l-3.36-.89-.81-6-2.4-1.37L8.55,45.39,6.09,43l2.39-5.59L7.1,35,.89,34.12,0,30.81l5-3.74V24.33L0,20.59l.89-3.31L7.1,16.4,8.48,14,6.09,8.42,8.55,6l5.78,2.22,2.4-1.38L17.54.89,20.9,0l3.83,4.72H27.5L31.28,0l3.36.89.85,6,2.4,1.38L43.63,6l2.46,2.42L43.73,14l1.39,2.38,6.16.88.9,3.31-4.92,3.74ZM26.09,12.13A13.57,13.57,0,1,0,39.86,25.69,13.68,13.68,0,0,0,26.09,12.13"/></g></g></symbol></defs><g class="ab"><rect class="ad" width="478" height="100"/><g class="ae"><polygon class="af" points="89.03 74.38 89.03 37.65 54.46 19.28 19.89 37.65 19.89 74.38 54.46 92.74 89.03 74.38"/></g><polygon class="ag" points="89.03 65.38 89.03 28.65 54.46 10.28 19.89 28.65 19.89 65.38 54.46 83.74 89.03 65.38"/><path class="c" d="M57.94,60.22,53.69,51.4H51.82v8.82H46.54V36.53h9.39a7.54,7.54,0,0,1,5.56,2.1,7.14,7.14,0,0,1,2.13,5.31,7.05,7.05,0,0,1-1.24,4.16,6.86,6.86,0,0,1-3.44,2.53l4.81,9.59ZM51.82,46.85h3.11a3.57,3.57,0,0,0,2.47-.78,3,3,0,0,0,0-4.2,3.62,3.62,0,0,0-2.47-.77H51.82Z"/><use width="52.2" height="58.57" transform="translate(186.45 2.12) scale(1.05)" xlink:href="#y"/><use width="52.2" height="58.57" transform="matrix(1.04, -0.16, 0.16, 1.04, 227.74, 36.07)" xlink:href="#y"/></g></svg>