<svg xmlns="http://www.w3.org/2000/svg" viewBox="0 0 478 100"><defs><style>.a{isolation:isolate;}.b{fill:#fec75e;}.c{opacity:0.18;mix-blend-mode:multiply;}.d,.e{fill:none;stroke-miterlimit:10;}.d{stroke:#000;}.e{stroke:#fff;}.f{fill:#fff;}.g{fill:#c29644;}.h{fill:#b2b2b2;}.i{fill:#47915a;}.j{fill:#4b4b4b;}</style></defs><g class="a"><rect class="b" width="478" height="100"/><g class="c"><polygon class="d" points="89.03 74.38 89.03 37.65 54.46 19.28 19.89 37.65 19.89 74.38 54.46 92.74 89.03 74.38"/></g><polygon class="e" points="89.03 65.38 89.03 28.65 54.46 10.28 19.89 28.65 19.89 65.38 54.46 83.74 89.03 65.38"/><path class="f" d="M61.19,58.36a9.64,9.64,0,0,1-6.73,2.39,9.64,9.64,0,0,1-6.73-2.39,8.54,8.54,0,0,1-2.66-6.7V36.53h5.28v14.7a4.38,4.38,0,0,0,1.09,3.21,4.7,4.7,0,0,0,6,0,4.38,4.38,0,0,0,1.09-3.21V36.53h5.28V51.66A8.54,8.54,0,0,1,61.19,58.36Z"/><rect class="g" x="185.47" y="38.65" width="27.64" height="27.26"/><rect class="h" x="185.47" y="34.66" width="27.64" height="26.93"/><rect class="f" x="185.47" y="32.33" width="27.64" height="27.64"/><rect class="g" x="234.16" y="61.58" width="5.74" height="4.32"/><polygon class="g" points="248.95 35.83 239.9 50.83 239.9 55.15 248.95 40.15 248.95 35.83"/><polygon class="g" points="225.23 35.83 225.23 40.15 234.16 55.15 234.16 50.83 225.23 35.83"/><path class="g" d="M255.74,47.34a3.42,3.42,0,0,0-2.54.95,3.15,3.15,0,0,0-.25.28h5.73a4.15,4.15,0,0,0-.27-.32A3.59,3.59,0,0,0,255.74,47.34Z"/><path class="g" d="M246.75,54.42a12.29,12.29,0,0,0-.15,1.86A9.19,9.19,0,0,0,256,65.91a8.88,8.88,0,0,0,5.45-1.62,7.52,7.52,0,0,0,2.87-4.12L264.6,54H252.69S247.84,54,246.75,54.42Z"/><path class="g" d="M280.19,50.61a5.53,5.53,0,0,1,1.05,1.63l.11,0V48.36l-3.62.66A6.43,6.43,0,0,1,280.19,50.61Z"/><path class="g" d="M276,48.54l.63.14A2.51,2.51,0,0,0,276,47.6a2.56,2.56,0,0,0-1.84-.62,2.25,2.25,0,0,0-1.38.44,1.29,1.29,0,0,0-.21.19,2.05,2.05,0,0,0,1,.46Z"/><path class="g" d="M272.56,54.54q-.54-.12-1-.27a2.57,2.57,0,0,0,.71,1.26,2.77,2.77,0,0,0,2.05.71,2.32,2.32,0,0,0,1.56-.46.71.71,0,0,0,.15-.15,3,3,0,0,0-1.38-.62Z"/><path class="g" d="M268.49,52.48a5.11,5.11,0,0,1-1.31-3.5v3.86a5.38,5.38,0,0,0,.26,1.68l3.2-.57A5.85,5.85,0,0,1,268.49,52.48Z"/><path class="g" d="M274.41,62.13a10.18,10.18,0,0,1-3.54-.58A5.77,5.77,0,0,1,268.51,60a7.54,7.54,0,0,1-1.24-1.84,5.2,5.2,0,0,1-.49-1.74v3.86a5.32,5.32,0,0,0,.49,1.75,7.69,7.69,0,0,0,1.24,1.83,5.77,5.77,0,0,0,2.36,1.51,10,10,0,0,0,3.54.58,7.37,7.37,0,0,0,5.3-1.8,5.73,5.73,0,0,0,1.89-4.3,5.15,5.15,0,0,0-.34-1.89,6,6,0,0,1-1.55,2.33A7.37,7.37,0,0,1,274.41,62.13Z"/><path class="i" d="M267.18,48.53V49c0-.15,0-.29,0-.44Z"/><rect class="h" x="234.16" y="59.76" width="5.74" height="1.82"/><polygon class="h" points="228.72 39.87 225.23 34.01 225.23 35.83 234.16 50.83 234.16 49.01 228.72 39.87"/><polygon class="h" points="245.13 40.35 239.9 49.01 239.9 50.83 248.95 35.83 248.95 34.01 245.13 40.35"/><path class="h" d="M264.69,51.51a2.65,2.65,0,0,1-.09.62H252a3.25,3.25,0,0,0,.66,1.82h6.75a3.66,3.66,0,0,0,.33-.69l2.45.69h2.38a7.58,7.58,0,0,0,.11-1.7C264.71,52,264.7,51.76,264.69,51.51Z"/><path class="h" d="M259,47.22a3.51,3.51,0,0,0-.57-.79,3.59,3.59,0,0,0-2.67-.91,3.42,3.42,0,0,0-2.54.95,3.77,3.77,0,0,0-.64.83,3.23,3.23,0,0,0-.42,1.27H253a3.15,3.15,0,0,1,.25-.28,3.42,3.42,0,0,1,2.54-.95,3.59,3.59,0,0,1,2.67.91,4.15,4.15,0,0,1,.27.32h.69A3.3,3.3,0,0,0,259,47.22Z"/><path class="h" d="M262.68,57.64l-.07.08a8,8,0,0,1-4.49,2.4,11.24,11.24,0,0,1-2.05.19,9.83,9.83,0,0,1-3.16-.5,9.25,9.25,0,0,1-3.51-2.12A8.54,8.54,0,0,1,247,53.5a10.34,10.34,0,0,1-.29-1.9,8.77,8.77,0,0,0,0,.9,11.52,11.52,0,0,0,.15,1.9,8.7,8.7,0,0,0,2.59,5.11,9.29,9.29,0,0,0,6.67,2.62,8.85,8.85,0,0,0,5.44-1.62,7.59,7.59,0,0,0,2.37-2.79v0a7,7,0,0,0,.49-1.3V54.57A7.32,7.32,0,0,1,262.68,57.64Z"/><path class="h" d="M281.53,55.12a5.44,5.44,0,0,1-.71,2,6.22,6.22,0,0,1-1.11,1.39,6.49,6.49,0,0,1-3.33,1.62,11,11,0,0,1-2,.18,10.67,10.67,0,0,1-2.87-.37c-.23-.07-.46-.13-.67-.21a5.77,5.77,0,0,1-2.36-1.51,8.16,8.16,0,0,1-1.05-1.46l-.19-.38a5.2,5.2,0,0,1-.49-1.74v1.82a5.2,5.2,0,0,0,.49,1.74A7.54,7.54,0,0,0,268.51,60a5.77,5.77,0,0,0,2.36,1.51,10.18,10.18,0,0,0,3.54.58,7.37,7.37,0,0,0,5.3-1.8A6,6,0,0,0,281.26,58a5.84,5.84,0,0,0,.34-2A6.69,6.69,0,0,0,281.53,55.12Z"/><path class="h" d="M276.34,54.29c-.19-.52-.75-.89-1.71-1.1l-2.07-.48-.31-.07a7,7,0,0,1-3.76-2,5,5,0,0,1-1.11-2,5.6,5.6,0,0,1-.12-.59,3.87,3.87,0,0,0-.06.46c0,.15,0,.29,0,.44a5.11,5.11,0,0,0,1.31,3.5A5.85,5.85,0,0,0,270.64,54l.83-.15a2.31,2.31,0,0,0,.07.47q.48.15,1,.27l2.07.47a3,3,0,0,1,1.38.62,1.34,1.34,0,0,0,.4-1A1.23,1.23,0,0,0,276.34,54.29Z"/><path class="h" d="M279,47l-2.25.42a2.62,2.62,0,0,0-.49-1.3,1.81,1.81,0,0,0-.25-.3,2.56,2.56,0,0,0-1.84-.62,2.25,2.25,0,0,0-1.38.44,1.47,1.47,0,0,0-.48.61,1.45,1.45,0,0,0-.1.51,1.13,1.13,0,0,0,.37.89,1.29,1.29,0,0,1,.21-.19,2.25,2.25,0,0,1,1.38-.44,2.56,2.56,0,0,1,1.84.62,2.51,2.51,0,0,1,.64,1.08,10.13,10.13,0,0,1,1.06.34l3.62-.66V46.54Z"/><polygon class="f" points="242.55 34.01 237.21 43.56 231.95 34.01 225.23 34.01 228.72 39.87 234.16 49.01 234.16 50.83 234.16 55.15 234.16 59.76 239.9 59.76 239.9 55.15 239.9 50.83 239.9 49.01 245.13 40.35 248.95 34.01 242.55 34.01"/><path class="f" d="M262.3,43.62a8.87,8.87,0,0,0-6.63-2.46,8.69,8.69,0,0,0-6.34,2.66,9.23,9.23,0,0,0-2.67,6.86c0,.31,0,.62,0,.92a10.34,10.34,0,0,0,.29,1.9,8.54,8.54,0,0,0,2.41,4.19,9.25,9.25,0,0,0,3.51,2.12,9.83,9.83,0,0,0,3.16.5,11.24,11.24,0,0,0,2.05-.19,8,8,0,0,0,4.49-2.4l.07-.08a7.32,7.32,0,0,0,1.7-3.07L262.22,54l-2.45-.69a3.66,3.66,0,0,1-.33.69,3.5,3.5,0,0,1-3.3,1.67,4.24,4.24,0,0,1-2.83-1A3.61,3.61,0,0,1,252,52.13H264.6a2.65,2.65,0,0,0,.09-.62c0-.28,0-.64,0-1.08A9.27,9.27,0,0,0,262.3,43.62Zm-3.62,5h-6.54a3.23,3.23,0,0,1,.42-1.27,3.77,3.77,0,0,1,.64-.83,3.42,3.42,0,0,1,2.54-.95,3.59,3.59,0,0,1,2.67.91,3.51,3.51,0,0,1,.57.79,3.3,3.3,0,0,1,.39,1.35Z"/><path class="f" d="M281.24,52.24a5.53,5.53,0,0,0-1.05-1.63A6.43,6.43,0,0,0,277.73,49a10.13,10.13,0,0,0-1.06-.34l-.63-.14-2.39-.47a2.05,2.05,0,0,1-1-.46,1.13,1.13,0,0,1-.37-.89,1.45,1.45,0,0,1,.1-.51,1.47,1.47,0,0,1,.48-.61,2.25,2.25,0,0,1,1.38-.44,2.56,2.56,0,0,1,1.84.62,1.81,1.81,0,0,1,.25.3,2.62,2.62,0,0,1,.49,1.3L279,47l2.33-.42a5.81,5.81,0,0,0-2-3.69,7.38,7.38,0,0,0-5.28-1.69,7.24,7.24,0,0,0-5,1.75,5.52,5.52,0,0,0-1.9,5.17,5.6,5.6,0,0,0,.12.59,5,5,0,0,0,1.11,2,7,7,0,0,0,3.76,2l.31.07,2.07.48c1,.21,1.52.58,1.71,1.1a1.23,1.23,0,0,1,.07.39,1.34,1.34,0,0,1-.4,1,.71.71,0,0,1-.15.15,2.32,2.32,0,0,1-1.56.46,2.77,2.77,0,0,1-2.05-.71,2.57,2.57,0,0,1-.71-1.26,2.31,2.31,0,0,1-.07-.47l-.83.15-3.2.57-.66.12a5.2,5.2,0,0,0,.49,1.74l.19.38a8.16,8.16,0,0,0,1.05,1.46,5.77,5.77,0,0,0,2.36,1.51c.21.08.44.14.67.21a10.67,10.67,0,0,0,2.87.37,11,11,0,0,0,2-.18,6.49,6.49,0,0,0,3.33-1.62,6.22,6.22,0,0,0,1.11-1.39,5.44,5.44,0,0,0,.71-2,6.74,6.74,0,0,0,.07-.92A5.29,5.29,0,0,0,281.24,52.24Z"/><path class="j" d="M192.12,41.32c-1.38.19-2.62,2.09-2.64,3.68,0,2,8.27,10.5,10.91,10.12,5.08-.73,8.93-17.64,8.27-17.95S202.3,49.3,200,49.37C197.93,49.43,195.12,40.9,192.12,41.32Z"/></g></svg>